<svg version="1.1" id="Layer_1" xmlns="http://www.w3.org/2000/svg" xmlns:xlink="http://www.w3.org/1999/xlink" x="0px" y="0px"
	 width="100%" viewBox="0 0 379 252" enable-background="new 0 0 379 252" xml:space="preserve">
<path fill="black" opacity="1.000000" stroke="none" 
	d="
M248.000000,253.000000 
	C165.333359,253.000000 83.166718,253.000000 1.000055,253.000000 
	C1.000037,169.000046 1.000037,85.000099 1.000018,1.000112 
	C127.333244,1.000074 253.666489,1.000074 379.999817,1.000037 
	C379.999878,84.999886 379.999878,168.999771 379.999939,252.999832 
	C336.166656,253.000000 292.333344,253.000000 248.000000,253.000000 
M135.316727,4.287170 
	C135.438232,5.199349 135.303726,6.253945 135.719955,7.002170 
	C141.226562,16.900948 149.624802,22.584124 160.980774,22.928680 
	C175.462738,23.368086 189.964249,23.130833 204.450821,23.466454 
	C210.235535,23.600473 216.187927,23.759071 221.740555,25.174915 
	C234.274673,28.370951 243.017044,36.479038 245.678055,49.194645 
	C248.220108,61.341808 244.700928,72.092812 234.523346,80.231361 
	C227.212402,86.077583 218.723755,87.757278 209.833069,87.933678 
	C197.363800,88.181076 184.885986,87.996162 171.753586,87.996162 
	C172.280807,90.221977 172.428741,92.013870 173.113754,93.569221 
	C195.032516,143.336380 216.927078,193.114746 239.154053,242.744202 
	C240.497025,245.742874 244.238159,248.197998 247.432343,249.679001 
	C250.287033,251.002625 253.935974,250.575714 257.221863,251.015289 
	C262.737640,251.753143 265.838226,248.958878 268.005371,244.219879 
	C295.159943,184.839401 322.361694,125.480484 349.569855,66.124512 
	C358.997925,45.556702 368.476959,25.012241 378.665527,2.864061 
	C372.564270,4.691902 367.517700,5.623931 362.983704,7.684101 
	C353.846344,11.835949 348.935059,19.902462 344.901459,28.697155 
	C322.985687,76.481468 300.999237,124.233398 279.006165,171.982239 
	C270.666809,190.087692 262.244934,208.155136 253.367126,227.304565 
	C235.673248,186.827682 218.455978,147.441116 201.189713,107.942436 
	C209.395676,107.445290 217.001678,107.846878 224.235657,106.394913 
	C253.424530,100.536263 271.339630,72.934006 264.628754,44.017483 
	C260.437500,25.957907 250.357788,12.122639 231.789719,6.815720 
	C224.404846,4.705056 216.375259,4.223684 208.625748,4.131536 
	C184.475952,3.844377 160.319717,4.098058 135.316727,4.287170 
M75.496613,115.975700 
	C67.077347,97.646912 58.716328,79.291054 50.219505,60.998287 
	C43.953655,47.508564 37.985001,33.848396 30.998890,20.735697 
	C25.225460,9.899161 15.441464,4.426258 2.571873,3.908415 
	C3.229584,5.717035 3.627175,7.115842 4.228878,8.420515 
	C21.467886,45.799858 38.787720,83.142036 55.967136,120.548721 
	C74.384644,160.651230 92.775284,200.766907 110.921005,240.992615 
	C114.075851,247.986313 118.598984,251.468735 126.240402,250.865372 
	C127.560150,250.761154 128.906174,250.871765 130.231903,250.981628 
	C136.000534,251.459702 139.667389,248.714081 141.875534,243.573364 
	C151.194763,221.877533 160.597198,200.217209 169.846939,178.491852 
	C175.255081,165.789429 172.605530,151.379684 163.309082,142.056229 
	C151.272293,170.114975 139.260818,198.114670 126.783005,227.201492 
	C109.456779,189.559967 92.671806,153.094299 75.496613,115.975700 
z"/>
<path fill="#F4F4F5" opacity="1.000000" stroke="none" 
	d="
M135.741364,4.214594 
	C160.319717,4.098058 184.475952,3.844377 208.625748,4.131536 
	C216.375259,4.223684 224.404846,4.705056 231.789719,6.815720 
	C250.357788,12.122639 260.437500,25.957907 264.628754,44.017483 
	C271.339630,72.934006 253.424530,100.536263 224.235657,106.394913 
	C217.001678,107.846878 209.395676,107.445290 201.189713,107.942436 
	C218.455978,147.441116 235.673248,186.827682 253.367126,227.304565 
	C262.244934,208.155136 270.666809,190.087692 279.006165,171.982239 
	C300.999237,124.233398 322.985687,76.481468 344.901459,28.697155 
	C348.935059,19.902462 353.846344,11.835949 362.983704,7.684101 
	C367.517700,5.623931 372.564270,4.691902 378.665527,2.864061 
	C368.476959,25.012241 358.997925,45.556702 349.569855,66.124512 
	C322.361694,125.480484 295.159943,184.839401 268.005371,244.219879 
	C265.838226,248.958878 262.737640,251.753143 257.221863,251.015289 
	C253.935974,250.575714 250.287033,251.002625 247.432343,249.679001 
	C244.238159,248.197998 240.497025,245.742874 239.154053,242.744202 
	C216.927078,193.114746 195.032516,143.336380 173.113754,93.569221 
	C172.428741,92.013870 172.280807,90.221977 171.753586,87.996162 
	C184.885986,87.996162 197.363800,88.181076 209.833069,87.933678 
	C218.723755,87.757278 227.212402,86.077583 234.523346,80.231361 
	C244.700928,72.092812 248.220108,61.341808 245.678055,49.194645 
	C243.017044,36.479038 234.274673,28.370951 221.740555,25.174915 
	C216.187927,23.759071 210.235535,23.600473 204.450821,23.466454 
	C189.964249,23.130833 175.462738,23.368086 160.980774,22.928680 
	C149.624802,22.584124 141.226562,16.900948 135.719955,7.002170 
	C135.303726,6.253945 135.438232,5.199349 135.741364,4.214594 
z"/>
<path fill="#F2F2F2" opacity="1.000000" stroke="none" 
	d="
M75.691719,116.302162 
	C92.671806,153.094299 109.456779,189.559967 126.783005,227.201492 
	C139.260818,198.114670 151.272293,170.114975 163.309082,142.056229 
	C172.605530,151.379684 175.255081,165.789429 169.846939,178.491852 
	C160.597198,200.217209 151.194763,221.877533 141.875534,243.573364 
	C139.667389,248.714081 136.000534,251.459702 130.231903,250.981628 
	C128.906174,250.871765 127.560150,250.761154 126.240402,250.865372 
	C118.598984,251.468735 114.075851,247.986313 110.921005,240.992615 
	C92.775284,200.766907 74.384644,160.651230 55.967136,120.548721 
	C38.787720,83.142036 21.467886,45.799858 4.228878,8.420515 
	C3.627175,7.115842 3.229584,5.717035 2.571873,3.908415 
	C15.441464,4.426258 25.225460,9.899161 30.998890,20.735697 
	C37.985001,33.848396 43.953655,47.508564 50.219505,60.998287 
	C58.716328,79.291054 67.077347,97.646912 75.691719,116.302162 
z"/>
</svg>