<svg version="1.1" id="Layer_1" xmlns="http://www.w3.org/2000/svg" xmlns:xlink="http://www.w3.org/1999/xlink" x="0px" y="0px"
	 width="100%" viewBox="0 0 360 360" enable-background="new 0 0 360 360" xml:space="preserve">
<path fill="black" opacity="1.000000" stroke="none" 
	d="
M210.000000,361.000000 
	C140.024124,361.000000 70.548264,361.000000 1.036195,361.000000 
	C1.036195,241.065796 1.036195,121.131592 1.036195,1.098691 
	C120.892464,1.098691 240.785034,1.098691 360.838806,1.098691 
	C360.838806,120.999825 360.838806,240.999893 360.838806,361.000000 
	C310.798370,361.000000 260.649170,361.000000 210.000000,361.000000 
M181.498734,135.474533 
	C184.662933,135.487747 187.831863,135.394608 190.990433,135.534668 
	C199.560944,135.914658 205.923126,142.185242 205.747025,149.962555 
	C205.566742,157.924713 199.212143,163.774689 190.519531,163.878113 
	C184.748245,163.946793 178.975494,163.891129 173.176178,163.891129 
	C173.176178,164.662186 173.071930,165.031982 173.191040,165.304001 
	C182.987915,187.678085 192.746140,210.069702 202.752701,232.349792 
	C203.360397,233.702835 205.910355,234.784943 207.627289,234.895569 
	C210.121506,235.056274 213.188644,236.362106 214.829880,232.572174 
	C218.591385,223.886093 222.644043,215.325760 226.599670,206.724075 
	C238.744675,180.314346 250.899628,153.909180 263.250183,127.068764 
	C255.810211,127.385933 251.794952,131.415878 249.044891,137.416382 
	C236.448502,164.901230 223.784424,192.355072 211.134521,219.815384 
	C210.436493,221.330688 209.647537,222.804108 208.603912,224.890884 
	C200.780487,207.014648 193.342316,190.018723 185.585495,172.294678 
	C188.405441,172.294678 190.525528,172.402222 192.631714,172.276810 
	C204.219788,171.586853 213.548996,162.409302 214.121307,151.203171 
	C214.728775,139.308670 206.919022,128.418747 195.249634,127.463203 
	C182.603378,126.427666 169.806747,127.228531 156.565231,127.228531 
	C159.238312,132.522705 163.196396,135.072113 168.517166,135.381165 
	C172.501404,135.612579 176.508102,135.457611 181.498734,135.474533 
M112.577888,157.053284 
	C124.044144,181.978271 135.624237,206.852158 146.858826,231.881119 
	C148.624634,235.815079 151.315018,234.860397 154.121094,235.064026 
	C156.802933,235.258606 158.609085,234.851074 159.798721,231.791580 
	C163.290878,222.810425 166.753494,213.753372 171.181702,205.221176 
	C174.660782,198.517761 173.660187,193.087296 169.353073,187.345795 
	C164.061890,199.705841 158.839203,211.905853 153.297455,224.851227 
	C152.215347,222.613983 151.550476,221.295120 150.932983,219.954422 
	C138.276154,192.473938 125.592522,165.005707 112.997459,137.496933 
	C110.242867,131.480652 106.254288,127.425140 98.764473,127.053940 
	C103.374435,137.122360 107.787277,146.760254 112.577888,157.053284 
z"/>
<path fill="#F6F6F7" opacity="1.000000" stroke="none" 
	d="
M181.001770,135.474609 
	C176.508102,135.457611 172.501404,135.612579 168.517166,135.381165 
	C163.196396,135.072113 159.238312,132.522705 156.565231,127.228531 
	C169.806747,127.228531 182.603378,126.427666 195.249634,127.463203 
	C206.919022,128.418747 214.728775,139.308670 214.121307,151.203171 
	C213.548996,162.409302 204.219788,171.586853 192.631714,172.276810 
	C190.525528,172.402222 188.405441,172.294678 185.585495,172.294678 
	C193.342316,190.018723 200.780487,207.014648 208.603912,224.890884 
	C209.647537,222.804108 210.436493,221.330688 211.134521,219.815384 
	C223.784424,192.355072 236.448502,164.901230 249.044891,137.416382 
	C251.794952,131.415878 255.810211,127.385933 263.250183,127.068764 
	C250.899628,153.909180 238.744675,180.314346 226.599670,206.724075 
	C222.644043,215.325760 218.591385,223.886093 214.829880,232.572174 
	C213.188644,236.362106 210.121506,235.056274 207.627289,234.895569 
	C205.910355,234.784943 203.360397,233.702835 202.752701,232.349792 
	C192.746140,210.069702 182.987915,187.678085 173.191040,165.304001 
	C173.071930,165.031982 173.176178,164.662186 173.176178,163.891129 
	C178.975494,163.891129 184.748245,163.946793 190.519531,163.878113 
	C199.212143,163.774689 205.566742,157.924713 205.747025,149.962555 
	C205.923126,142.185242 199.560944,135.914658 190.990433,135.534668 
	C187.831863,135.394608 184.662933,135.487747 181.001770,135.474609 
z"/>
<path fill="#F5F5F5" opacity="1.000000" stroke="none" 
	d="
M112.389008,156.725708 
	C107.787277,146.760254 103.374435,137.122360 98.764473,127.053940 
	C106.254288,127.425140 110.242867,131.480652 112.997459,137.496933 
	C125.592522,165.005707 138.276154,192.473938 150.932983,219.954422 
	C151.550476,221.295120 152.215347,222.613983 153.297455,224.851227 
	C158.839203,211.905853 164.061890,199.705841 169.353073,187.345795 
	C173.660187,193.087296 174.660782,198.517761 171.181702,205.221176 
	C166.753494,213.753372 163.290878,222.810425 159.798721,231.791580 
	C158.609085,234.851074 156.802933,235.258606 154.121094,235.064026 
	C151.315018,234.860397 148.624634,235.815079 146.858826,231.881119 
	C135.624237,206.852158 124.044144,181.978271 112.389008,156.725708 
z"/>
</svg>